HIERARCHY
ROOT Model
{
	OFFSET 0.000000 0.000000 0.000000 
	CHANNELS 6 Xposition Yposition Zposition Zrotation Xrotation Yrotation
	JOINT Model1
	{
		OFFSET 0.000000 -0.563698 0.748457 
		CHANNELS 3 Zrotation Xrotation Yrotation
		JOINT Model2
		{
			OFFSET 3.027750 0.000000 0.000000 
			CHANNELS 3 Zrotation Xrotation Yrotation
			JOINT Model3
			{
				OFFSET 2.887550 0.000000 0.000000 
				CHANNELS 3 Zrotation Xrotation Yrotation
				JOINT Model4
				{
					OFFSET 2.945250 0.000000 0.000000 
					CHANNELS 3 Zrotation Xrotation Yrotation
					JOINT Model5
					{
						OFFSET 5.015025 0.000000 0.000000 
						CHANNELS 3 Zrotation Xrotation Yrotation
						JOINT Model6
						{
							OFFSET 2.799050 0.000000 0.000000 
							CHANNELS 3 Zrotation Xrotation Yrotation
							End Site
							{
								OFFSET 0.000000 0.000000 0.000000 
							}
						}
					}
					JOINT Model7
					{
						OFFSET 2.705575 0.104384 0.877785 
						CHANNELS 3 Zrotation Xrotation Yrotation
						JOINT Model8
						{
							OFFSET -1.519858 0.000000 0.000000 
							CHANNELS 3 Zrotation Xrotation Yrotation
							JOINT Model9
							{
								OFFSET -0.069353 2.597500 -0.012811 
								CHANNELS 3 Zrotation Xrotation Yrotation
								JOINT Model10
								{
									OFFSET -0.859775 -0.070511 0.466695 
									CHANNELS 3 Zrotation Xrotation Yrotation
									JOINT Model11
									{
										OFFSET 3.256725 0.000000 0.000000 
										CHANNELS 3 Zrotation Xrotation Yrotation
										JOINT Model12
										{
											OFFSET 2.721650 0.000000 0.000000 
											CHANNELS 3 Zrotation Xrotation Yrotation
											JOINT Model13
											{
												OFFSET 4.182925 0.000000 0.000000 
												CHANNELS 3 Zrotation Xrotation Yrotation
												JOINT Model14
												{
													OFFSET 2.957300 0.000000 0.000000 
													CHANNELS 3 Zrotation Xrotation Yrotation
													JOINT Model15
													{
														OFFSET 1.206877 -0.933915 -0.209129 
														CHANNELS 3 Zrotation Xrotation Yrotation
														JOINT Model16
														{
															OFFSET 0.938277 -0.014573 -0.004662 
															CHANNELS 3 Zrotation Xrotation Yrotation
															JOINT Model17
															{
																OFFSET 0.721722 0.004808 0.003700 
																CHANNELS 3 Zrotation Xrotation Yrotation
																End Site
																{
																	OFFSET 0.000000 0.000000 0.000000 
																}
															}
														}
													}
													JOINT Model18
													{
														OFFSET 2.430495 -0.766145 0.059691 
														CHANNELS 3 Zrotation Xrotation Yrotation
														JOINT Model19
														{
															OFFSET 1.152828 0.000000 0.000000 
															CHANNELS 3 Zrotation Xrotation Yrotation
															JOINT Model20
															{
																OFFSET 0.724225 -0.000003 0.000000 
																CHANNELS 3 Zrotation Xrotation Yrotation
																End Site
																{
																	OFFSET 0.000000 0.000000 0.000000 
																}
															}
														}
													}
													JOINT Model21
													{
														OFFSET 2.386075 -0.186266 0.147234 
														CHANNELS 3 Zrotation Xrotation Yrotation
														JOINT Model22
														{
															OFFSET 1.334945 0.000000 0.000000 
															CHANNELS 3 Zrotation Xrotation Yrotation
															JOINT Model23
															{
																OFFSET 0.759048 0.000003 0.000000 
																CHANNELS 3 Zrotation Xrotation Yrotation
																End Site
																{
																	OFFSET 0.000000 0.000000 0.000000 
																}
															}
														}
													}
													JOINT Model24
													{
														OFFSET 2.369397 0.378215 0.121280 
														CHANNELS 3 Zrotation Xrotation Yrotation
														JOINT Model25
														{
															OFFSET 1.240340 0.000003 0.000000 
															CHANNELS 3 Zrotation Xrotation Yrotation
															JOINT Model26
															{
																OFFSET 0.629912 0.000000 0.000000 
																CHANNELS 3 Zrotation Xrotation Yrotation
																End Site
																{
																	OFFSET 0.000000 0.000000 0.000000 
																}
															}
														}
													}
													JOINT Model27
													{
														OFFSET 2.335620 0.835293 -0.059820 
														CHANNELS 3 Zrotation Xrotation Yrotation
														JOINT Model28
														{
															OFFSET 0.820647 0.000007 0.000000 
															CHANNELS 3 Zrotation Xrotation Yrotation
															JOINT Model29
															{
																OFFSET 0.532300 0.000000 0.000000 
																CHANNELS 3 Zrotation Xrotation Yrotation
																End Site
																{
																	OFFSET 0.000000 0.000000 0.000000 
																}
															}
														}
													}
												}
											}
										}
									}
								}
							}
						}
					}
					JOINT Model30
					{
						OFFSET 2.705575 0.104476 -0.877768 
						CHANNELS 3 Zrotation Xrotation Yrotation
						JOINT Model31
						{
							OFFSET 1.519858 0.000000 0.000000 
							CHANNELS 3 Zrotation Xrotation Yrotation
							JOINT Model32
							{
								OFFSET 0.069353 -2.597500 0.012811 
								CHANNELS 3 Zrotation Xrotation Yrotation
								JOINT Model33
								{
									OFFSET 0.859775 0.070511 -0.466695 
									CHANNELS 3 Zrotation Xrotation Yrotation
									JOINT Model34
									{
										OFFSET -3.256725 0.000000 0.000000 
										CHANNELS 3 Zrotation Xrotation Yrotation
										JOINT Model35
										{
											OFFSET -2.721650 0.000000 0.000000 
											CHANNELS 3 Zrotation Xrotation Yrotation
											JOINT Model36
											{
												OFFSET -4.182925 0.000000 0.000000 
												CHANNELS 3 Zrotation Xrotation Yrotation
												JOINT Model37
												{
													OFFSET -2.957300 0.000000 0.000000 
													CHANNELS 3 Zrotation Xrotation Yrotation
													JOINT Model38
													{
														OFFSET -1.206877 0.933915 0.209129 
														CHANNELS 3 Zrotation Xrotation Yrotation
														JOINT Model39
														{
															OFFSET -0.938277 0.014571 0.004661 
															CHANNELS 3 Zrotation Xrotation Yrotation
															JOINT Model40
															{
																OFFSET -0.721720 -0.004809 -0.003700 
																CHANNELS 3 Zrotation Xrotation Yrotation
																End Site
																{
																	OFFSET 0.000000 0.000000 0.000000 
																}
															}
														}
													}
													JOINT Model41
													{
														OFFSET -2.430492 0.766147 -0.059692 
														CHANNELS 3 Zrotation Xrotation Yrotation
														JOINT Model42
														{
															OFFSET -1.152825 0.000000 0.000000 
															CHANNELS 3 Zrotation Xrotation Yrotation
															JOINT Model43
															{
																OFFSET -0.724225 0.000000 0.000000 
																CHANNELS 3 Zrotation Xrotation Yrotation
																End Site
																{
																	OFFSET 0.000000 0.000000 0.000000 
																}
															}
														}
													}
													JOINT Model44
													{
														OFFSET -2.386075 0.186266 -0.147235 
														CHANNELS 3 Zrotation Xrotation Yrotation
														JOINT Model45
														{
															OFFSET -1.334945 0.000000 0.000000 
															CHANNELS 3 Zrotation Xrotation Yrotation
															JOINT Model46
															{
																OFFSET -0.759048 -0.000004 0.000000 
																CHANNELS 3 Zrotation Xrotation Yrotation
																End Site
																{
																	OFFSET 0.000000 0.000000 0.000000 
																}
															}
														}
													}
													JOINT Model47
													{
														OFFSET -2.369397 -0.378215 -0.121281 
														CHANNELS 3 Zrotation Xrotation Yrotation
														JOINT Model48
														{
															OFFSET -1.240340 -0.000004 0.000000 
															CHANNELS 3 Zrotation Xrotation Yrotation
															JOINT Model49
															{
																OFFSET -0.629915 0.000000 0.000000 
																CHANNELS 3 Zrotation Xrotation Yrotation
																End Site
																{
																	OFFSET 0.000000 0.000000 0.000000 
																}
															}
														}
													}
													JOINT Model50
													{
														OFFSET -2.335615 -0.835295 0.059819 
														CHANNELS 3 Zrotation Xrotation Yrotation
														JOINT Model51
														{
															OFFSET -0.820650 -0.000005 0.000000 
															CHANNELS 3 Zrotation Xrotation Yrotation
															JOINT Model52
															{
																OFFSET -0.532300 0.000000 0.000000 
																CHANNELS 3 Zrotation Xrotation Yrotation
																End Site
																{
																	OFFSET 0.000000 0.000000 0.000000 
																}
															}
														}
													}
												}
											}
										}
									}
								}
							}
						}
					}
				}
			}
		}
	}
	JOINT Model53
	{
		OFFSET 1.095065 -0.536580 -0.278790 
		CHANNELS 3 Zrotation Xrotation Yrotation
		JOINT Model54
		{
			OFFSET 0.000000 0.000000 1.237497 
			CHANNELS 3 Zrotation Xrotation Yrotation
			JOINT Model55
			{
				OFFSET 4.641050 0.000000 0.000000 
				CHANNELS 3 Zrotation Xrotation Yrotation
				JOINT Model56
				{
					OFFSET 5.322100 0.000000 0.000003 
					CHANNELS 3 Zrotation Xrotation Yrotation
					JOINT Model57
					{
						OFFSET 7.565250 0.000000 0.000000 
						CHANNELS 3 Zrotation Xrotation Yrotation
						JOINT Model58
						{
							OFFSET 2.931475 0.000000 0.000000 
							CHANNELS 3 Zrotation Xrotation Yrotation
							JOINT Model59
							{
								OFFSET 2.670500 0.000000 0.000000 
								CHANNELS 3 Zrotation Xrotation Yrotation
								End Site
								{
									OFFSET 0.000000 0.000000 0.000000 
								}
							}
						}
					}
				}
			}
		}
	}
	JOINT Model60
	{
		OFFSET -1.095065 -0.536580 -0.278790 
		CHANNELS 3 Zrotation Xrotation Yrotation
		JOINT Model61
		{
			OFFSET 0.000000 0.000000 -1.237497 
			CHANNELS 3 Zrotation Xrotation Yrotation
			JOINT Model62
			{
				OFFSET -4.641050 0.000000 0.000000 
				CHANNELS 3 Zrotation Xrotation Yrotation
				JOINT Model63
				{
					OFFSET -5.322100 0.000000 -0.000003 
					CHANNELS 3 Zrotation Xrotation Yrotation
					JOINT Model64
					{
						OFFSET -7.565250 0.000000 0.000000 
						CHANNELS 3 Zrotation Xrotation Yrotation
						JOINT Model65
						{
							OFFSET -2.931475 0.000000 0.000000 
							CHANNELS 3 Zrotation Xrotation Yrotation
							JOINT Model66
							{
								OFFSET -2.670500 0.000000 0.000000 
								CHANNELS 3 Zrotation Xrotation Yrotation
								End Site
								{
									OFFSET 0.000000 0.000000 0.000000 
								}
							}
						}
					}
				}
			}
		}
	}
}
MOTION
Frames: 4
Frame Time: 0.033333
-2.618352 19.731998 12.677150 -109.125999 -31.529800 -98.497803 -180.000000 -0.000000 -90.000000 11.353500 2.277140 -0.879660 22.765400 4.335510 -2.193430 22.765400 4.335910 -2.193600 -36.298901 9.731650 6.058360 13.563800 11.607500 -13.766400 120.092003 75.534302 58.493900 29.371000 -40.684399 -6.770520 -167.276993 84.499901 48.810902 165.115997 -25.025700 46.418800 0.000013 -27.506800 0.000023 -127.066002 -5.551250 0.487993 -0.000001 -7.967510 -0.000001 -5.054080 -0.788094 17.714701 -72.064796 39.038502 39.339699 33.363800 2.103620 14.835000 0.588947 0.308273 6.352870 -99.640900 81.413002 100.349998 -0.018141 0.000028 -0.117315 -0.124139 0.002411 -0.799296 -79.838203 79.577301 80.537399 -0.000226 -0.000221 0.000022 -0.000956 0.000123 -0.000027 -66.741600 80.405800 67.217102 -0.000437 0.000016 -0.000027 -0.000137 -0.000109 -0.000055 -6.421590 81.215797 8.017790 -0.000219 0.000017 0.000212 0.000902 -0.000185 -0.000219 -59.928200 75.537300 58.514702 34.473099 -4.902040 -5.288600 -167.276993 84.499901 48.810902 103.434998 -14.198300 2.221530 0.000010 -4.988010 0.000028 -137.455994 -0.823590 0.411798 0.000000 -0.599651 -0.000000 -0.052589 0.002475 -5.388530 -72.064796 39.038502 39.339699 33.363800 2.103610 14.835000 0.588946 0.308273 6.352870 -99.640900 81.413002 100.349998 -0.018141 0.000030 -0.117315 -0.124139 0.002411 -0.799296 -79.838203 79.577301 80.537399 -0.000261 -0.000219 0.000024 -0.000956 0.000123 -0.000027 -66.741600 80.405800 67.217102 -0.000437 0.000015 -0.000027 -0.000137 -0.000109 -0.000055 -6.421590 81.215797 8.017790 -0.000219 0.000020 0.000212 0.000902 -0.000191 -0.000219 0.000815 0.566610 89.910004 -26.953800 -16.826799 -44.610298 -0.000002 -4.110220 -0.000000 51.581699 9.390100 -0.006676 0.000000 13.991100 0.000001 -63.215801 -8.862540 4.510640 -35.494701 0.000001 -0.000001 -180.000000 -0.566576 -90.089996 -23.598301 1.345950 -6.888640 0.000002 5.569740 -0.000000 65.292801 1.947060 -0.007464 0.000000 2.809610 0.000000 -76.778297 -5.761790 1.346100 -35.494701 0.000000 0.000001 
-2.674776 19.920500 12.872400 -110.505997 -32.362301 -99.330200 -180.000000 -0.000000 -90.000000 11.546600 2.291560 -0.998825 23.156401 4.335660 -2.439440 23.156401 4.336060 -2.439620 -36.040600 8.856120 7.255730 13.626600 11.381800 -14.530900 120.092003 75.534302 58.493900 30.925800 -40.497299 -6.406730 -167.276993 84.499901 48.810902 165.679001 -23.775299 48.612202 0.000013 -26.574600 0.000023 -127.336998 -5.505480 0.486203 -0.000001 -7.891810 -0.000001 -5.158340 -1.019250 22.340300 -72.064796 39.038502 39.339699 33.363800 2.103620 14.835000 0.588947 0.308273 6.352870 -99.640900 81.413002 100.349998 -0.018141 0.000028 -0.117315 -0.124139 0.002411 -0.799296 -79.838203 79.577301 80.537399 -0.000226 -0.000221 0.000022 -0.000956 0.000123 -0.000027 -66.741600 80.405800 67.217102 -0.000437 0.000016 -0.000027 -0.000137 -0.000109 -0.000055 -6.421590 81.215797 8.017790 -0.000219 0.000017 0.000212 0.000902 -0.000185 -0.000219 -59.928200 75.537300 58.514702 32.505699 -4.637670 -5.057350 -167.276993 84.499901 48.810902 105.557999 -13.661900 5.874250 0.000008 -1.991940 0.000028 -138.658005 -0.086099 0.402298 0.000000 0.539280 -0.000000 -0.052589 0.002475 -5.388530 -72.064796 39.038502 39.339699 33.363800 2.103610 14.835000 0.588946 0.308273 6.352870 -99.640900 81.413002 100.349998 -0.018141 0.000030 -0.117315 -0.124139 0.002411 -0.799296 -79.838203 79.577301 80.537399 -0.000261 -0.000219 0.000024 -0.000956 0.000123 -0.000027 -66.741600 80.405800 67.217102 -0.000437 0.000015 -0.000027 -0.000137 -0.000109 -0.000055 -6.421590 81.215797 8.017790 -0.000219 0.000020 0.000212 0.000902 -0.000191 -0.000219 0.000815 0.566610 89.910004 -25.938299 -17.785500 -44.624001 -0.000002 -4.914100 -0.000000 50.884102 9.656510 -0.006616 0.000000 14.391700 0.000001 -62.888802 -6.761250 3.301240 -35.512199 -0.049631 0.002671 -180.000000 -0.566576 -90.089996 -20.738501 0.320512 -8.105050 0.000002 4.984440 -0.000000 63.137199 1.605920 -0.007182 0.000000 2.300090 0.000000 -76.195702 -6.258210 1.623290 -35.494701 0.000000 -0.000000 
-2.582002 20.224499 12.929300 -107.556999 -32.755699 -96.948898 -180.000000 -0.000000 -90.000000 10.727500 2.099690 -0.848818 21.504801 4.003770 -2.076050 21.504801 4.004180 -2.076210 -33.092499 10.012200 5.966900 12.525700 11.843500 -13.496000 120.092003 75.534302 58.493900 30.545500 -41.193401 -6.529610 -167.276993 84.499901 48.810902 168.912994 -20.167801 50.244499 0.000011 -23.437401 0.000022 -126.883003 -6.498710 0.489967 -0.000001 -9.393260 -0.000001 -3.043030 -0.826843 30.396000 -72.064796 39.038502 39.339699 33.363800 2.103620 14.835000 0.588947 0.308273 6.352870 -99.640900 81.413002 100.349998 -0.018141 0.000028 -0.117315 -0.124139 0.002411 -0.799296 -79.838203 79.577301 80.537399 -0.000226 -0.000221 0.000022 -0.000956 0.000123 -0.000027 -66.741600 80.405800 67.217102 -0.000437 0.000016 -0.000027 -0.000137 -0.000109 -0.000055 -6.421590 81.215797 8.017790 -0.000219 0.000017 0.000212 0.000902 -0.000185 -0.000219 -59.928200 75.537300 58.514702 33.149200 -2.396310 -5.088960 -167.276993 84.499901 48.810902 109.483002 -12.674400 10.727400 0.000006 2.090870 0.000028 -138.468002 0.867431 0.403912 0.000000 1.964230 -0.000000 -0.052589 0.002475 -5.388530 -72.064796 39.038502 39.339699 33.363800 2.103610 14.835000 0.588946 0.308273 6.352870 -99.640900 81.413002 100.349998 -0.018141 0.000030 -0.117315 -0.124139 0.002411 -0.799296 -79.838203 79.577301 80.537399 -0.000261 -0.000219 0.000024 -0.000956 0.000123 -0.000027 -66.741600 80.405800 67.217102 -0.000437 0.000015 -0.000027 -0.000137 -0.000109 -0.000055 -6.421590 81.215797 8.017790 -0.000219 0.000020 0.000212 0.000902 -0.000191 -0.000219 0.000815 0.566610 89.910004 -27.944700 -18.028200 -44.930599 -0.000002 -6.501220 -0.000000 50.133301 9.463000 -0.006552 0.000000 14.102600 0.000001 -62.390099 -2.949370 1.059330 -35.553001 -0.165628 0.008786 -180.000000 -0.566576 -90.089996 -21.331800 0.063828 -7.431450 0.000002 4.167620 -0.000000 59.972801 0.428480 -0.006899 0.000000 0.537444 0.000000 -74.284302 -7.038700 2.178450 -35.494701 0.000000 -0.000000 
-2.622901 20.591499 13.170800 -109.099998 -33.062000 -97.158600 -180.000000 -0.000000 -90.000000 10.989900 2.283390 -0.560793 22.026400 4.417220 -1.549020 22.026400 4.417620 -1.549190 -32.531200 10.145200 4.580590 12.195700 11.310200 -12.946100 120.092003 75.534302 58.493900 30.138201 -41.178902 -6.623930 -167.276993 84.499901 48.810902 169.584000 -17.072100 50.812401 0.000010 -19.400200 0.000021 -127.984001 -4.494570 0.481294 -0.000001 -6.358770 -0.000001 -2.527480 -0.741273 32.686501 -72.064796 39.038502 39.339699 33.363800 2.103620 14.835000 0.588947 0.308273 6.352870 -99.640900 81.413002 100.349998 -0.018141 0.000028 -0.117315 -0.124139 0.002411 -0.799296 -79.838203 79.577301 80.537399 -0.000226 -0.000221 0.000022 -0.000956 0.000123 -0.000027 -66.741600 80.405800 67.217102 -0.000437 0.000016 -0.000027 -0.000137 -0.000109 -0.000055 -6.421590 81.215797 8.017790 -0.000219 0.000017 0.000212 0.000902 -0.000185 -0.000219 -59.928200 75.537300 58.514702 32.696899 -3.078600 -5.043360 -167.276993 84.499901 48.810902 113.725998 -11.261400 15.755900 0.000004 6.401000 0.000028 -137.710007 1.936620 0.410157 0.000000 3.547150 -0.000000 -0.052589 0.002475 -5.388530 -72.064796 39.038502 39.339699 33.363800 2.103610 14.835000 0.588946 0.308273 6.352870 -99.640900 81.413002 100.349998 -0.018141 0.000030 -0.117315 -0.124139 0.002411 -0.799296 -79.838203 79.577301 80.537399 -0.000261 -0.000219 0.000024 -0.000956 0.000123 -0.000027 -66.741600 80.405800 67.217102 -0.000437 0.000015 -0.000027 -0.000137 -0.000109 -0.000055 -6.421590 81.215797 8.017790 -0.000219 0.000020 0.000212 0.000902 -0.000191 -0.000219 0.000815 0.566610 89.910004 -22.869699 -18.664801 -42.570599 -0.000002 -5.418000 -0.000000 45.189499 8.561260 -0.006057 0.000000 12.757700 0.000001 -61.723301 -7.355330 3.800470 -35.507301 -0.035802 0.001928 -180.000000 -0.566576 -90.089996 -16.951799 -0.463506 -7.091090 0.000002 3.656980 -0.000000 55.533901 -0.109683 -0.006687 0.000000 -0.264269 0.000000 -72.698402 -6.834320 2.250400 -35.497799 -0.008707 0.000470 
